<svg xmlns="http://www.w3.org/2000/svg" width="109" height="156" fill="none"><path fill="#153605" stroke="#fff" stroke-width="5" d="M33.341 31.46a4.3 4.3 0 0 0-.736.54c-.23.211-.69.68-.98 1.448l-.134.354-.057.377c-.73 4.71-.26 14.777 4.908 25.897a29 29 0 0 0-8.944-.452c-7.404.8-15.406 4.717-21.932 14.368l-2.005 2.964 2.855 1.963c3.492 2.4 9.439 5.168 16.26 5.944 4.807.546 10.135.105 15.343-2.228-1.821 11.326-1.467 25.637 4.46 38.517 7.542 16.389 23.73 29.666 53.802 31.937l2.141.162.915-2.119c1.572-3.641 2.939-8.408 4.128-12.393.233-.733.438-1.407.556-1.846 3.137-10.311 4.035-25.554-1.02-39.8-4.565-12.873-13.93-24.74-30.407-31.352 13.948-11.194 19.287-24.9 20.904-36.392a62.6 62.6 0 0 0 .143-16.158 52 52 0 0 0-.827-4.92 29 29 0 0 0-.354-1.447 13 13 0 0 0-.14-.48 5 5 0 0 0-.147-.414 4 4 0 0 0-.225-.455l-1.363-2.34-2.381.972C77.69 8.357 67.722 17.347 61.32 28.315c-5.6 9.596-8.644 21.038-6.503 32.355-4.792-1.835-7.555-5.337-9.15-9.213C43.61 46.464 43.469 40.729 44 37.03l.133-.927-.317-.871c-1.315-3.597-4.333-4.576-6.39-4.665a8.6 8.6 0 0 0-2.84.359 6 6 0 0 0-1.246.534Z"/><path fill="#fff" d="M50.285 73.025c-7.547 20.76-9.547 63.246 42.82 67.116 7.048-21.821 8.349-65.793-42.82-67.116"/><path fill="#7D6340" d="M76.438 97.617c-12.485 3.185-20.399-6.453-22.794-11.67-.586-2.437 1.541-3.99 2.678-4.46 8.456-3.301 18.008 4.296 21.727 8.508 3.058 4.25.2 6.852-1.612 7.622m2.348 14.45c-8.204 2.092-13.403-4.241-14.978-7.669-.386-1.601 1.013-2.621 1.76-2.931 5.557-2.17 11.832 2.823 14.277 5.591 2.009 2.792.131 4.502-1.06 5.009m-10.113 12.739c8.43 7.618 16.912 3.775 20.098.901 1.091-1.566-.073-3.616-.793-4.444-5.4-6.011-14.553-4.375-18.452-2.806-3.418 1.876-1.994 5.013-.853 6.349"/></svg>